<mxfile host="www.draw.io" modified="2019-11-10T00:43:26.739Z" agent="Mozilla/5.0 (Windows NT 10.0; Win64; x64) AppleWebKit/537.36 (KHTML, like Gecko) Chrome/78.0.3904.97 Safari/537.36" etag="_DkWlSiODfgnYyCSZe4X" version="12.2.3" type="github" pages="1">
  <diagram name="Page-1" id="2ca16b54-16f6-2749-3443-fa8db7711227">
    <mxGraphModel dx="1024" dy="534" grid="1" gridSize="10" guides="1" tooltips="1" connect="1" arrows="1" fold="1" page="1" pageScale="1" pageWidth="1100" pageHeight="850" background="#ffffff" math="0" shadow="0">
      <root>
        <mxCell id="0"/>
        <mxCell id="1" parent="0"/>
        <mxCell id="2ed32ef02a7f4228-4" value="&lt;div style=&quot;box-sizing: border-box ; width: 100% ; background: #e4e4e4 ; padding: 2px&quot;&gt;Transportation&lt;/div&gt;&lt;div&gt;&amp;nbsp;PK&lt;span style=&quot;white-space: pre&quot;&gt;	&lt;/span&gt;transportationId&lt;/div&gt;&lt;div&gt;&amp;nbsp;FK&lt;span style=&quot;white-space: pre&quot;&gt;	&lt;/span&gt;roadID&lt;/div&gt;&lt;div&gt;&amp;nbsp;FK&lt;span style=&quot;white-space: pre&quot;&gt;	&lt;/span&gt;railtrackID&lt;/div&gt;&lt;div&gt;&amp;nbsp;FK&lt;span style=&quot;white-space: pre&quot;&gt;	&lt;/span&gt;luastrackID&lt;/div&gt;&lt;div&gt;&amp;nbsp;FK&amp;nbsp; &amp;nbsp; road_vehicleVolume&lt;/div&gt;&lt;div&gt;&amp;nbsp;FK&amp;nbsp; &amp;nbsp; luas_vehicleVolume&lt;/div&gt;&lt;div&gt;&amp;nbsp;FK&amp;nbsp; &amp;nbsp; rail_vehicleVolume&lt;/div&gt;&lt;div&gt;&amp;nbsp; &amp;nbsp; &amp;nbsp; &amp;nbsp; &amp;nbsp;total_vehicleVolume&lt;/div&gt;" style="verticalAlign=top;align=left;overflow=fill;html=1;rounded=0;shadow=0;comic=0;labelBackgroundColor=none;strokeWidth=1;fontFamily=Verdana;fontSize=12" parent="1" vertex="1">
          <mxGeometry x="560" y="20" width="180" height="140" as="geometry"/>
        </mxCell>
        <mxCell id="P7vGpX-RoMBEGEW_AZkf-2" value="&lt;div style=&quot;box-sizing: border-box ; width: 100% ; background: #e4e4e4 ; padding: 2px&quot;&gt;Road&lt;/div&gt;&lt;table style=&quot;width: 100% ; font-size: 1em&quot; cellpadding=&quot;2&quot; cellspacing=&quot;0&quot;&gt;&lt;tbody&gt;&lt;tr&gt;&lt;td&gt;PK&lt;/td&gt;&lt;td&gt;roadID&lt;/td&gt;&lt;/tr&gt;&lt;tr&gt;&lt;td&gt;FK&lt;/td&gt;&lt;td&gt;locationID&lt;/td&gt;&lt;/tr&gt;&lt;tr&gt;&lt;td&gt;FK&lt;/td&gt;&lt;td&gt;vehicleID&lt;/td&gt;&lt;/tr&gt;&lt;tr&gt;&lt;td&gt;&amp;nbsp;&lt;/td&gt;&lt;td&gt;road_vehicleVolume&lt;/td&gt;&lt;/tr&gt;&lt;/tbody&gt;&lt;/table&gt;" style="verticalAlign=top;align=left;overflow=fill;html=1;rounded=0;shadow=0;comic=0;labelBackgroundColor=none;strokeWidth=1;fontFamily=Verdana;fontSize=12" vertex="1" parent="1">
          <mxGeometry x="300" y="150" width="180" height="100" as="geometry"/>
        </mxCell>
        <mxCell id="P7vGpX-RoMBEGEW_AZkf-3" value="&lt;div style=&quot;box-sizing: border-box ; width: 100% ; background: #e4e4e4 ; padding: 2px&quot;&gt;Luas Track&lt;/div&gt;&lt;table style=&quot;width: 100% ; font-size: 1em&quot; cellpadding=&quot;2&quot; cellspacing=&quot;0&quot;&gt;&lt;tbody&gt;&lt;tr&gt;&lt;td&gt;PK&lt;/td&gt;&lt;td&gt;luastrackID&lt;/td&gt;&lt;/tr&gt;&lt;tr&gt;&lt;td&gt;FK&lt;/td&gt;&lt;td&gt;locationID&lt;/td&gt;&lt;/tr&gt;&lt;tr&gt;&lt;td&gt;FK&lt;/td&gt;&lt;td&gt;vehicleID&lt;/td&gt;&lt;/tr&gt;&lt;tr&gt;&lt;td&gt;&amp;nbsp;&amp;nbsp;&lt;/td&gt;&lt;td&gt;luas_vehicleVolume&lt;/td&gt;&lt;/tr&gt;&lt;/tbody&gt;&lt;/table&gt;" style="verticalAlign=top;align=left;overflow=fill;html=1;rounded=0;shadow=0;comic=0;labelBackgroundColor=none;strokeWidth=1;fontFamily=Verdana;fontSize=12" vertex="1" parent="1">
          <mxGeometry x="560" y="200" width="180" height="100" as="geometry"/>
        </mxCell>
        <mxCell id="P7vGpX-RoMBEGEW_AZkf-5" value="&lt;div style=&quot;box-sizing: border-box ; width: 100% ; background: #e4e4e4 ; padding: 2px&quot;&gt;Rail Track&lt;/div&gt;&lt;table style=&quot;width: 100% ; font-size: 1em&quot; cellpadding=&quot;2&quot; cellspacing=&quot;0&quot;&gt;&lt;tbody&gt;&lt;tr&gt;&lt;td&gt;&amp;nbsp;PK&lt;/td&gt;&lt;td&gt;railtrackID&lt;/td&gt;&lt;/tr&gt;&lt;tr&gt;&lt;td&gt;&amp;nbsp;FK&lt;/td&gt;&lt;td&gt;locationID&lt;/td&gt;&lt;/tr&gt;&lt;tr&gt;&lt;td&gt;&amp;nbsp;FK&lt;/td&gt;&lt;td&gt;vehicleID&lt;/td&gt;&lt;/tr&gt;&lt;tr&gt;&lt;td&gt;&lt;br&gt;&lt;/td&gt;&lt;td&gt;rail_vehicleVolume&lt;/td&gt;&lt;/tr&gt;&lt;/tbody&gt;&lt;/table&gt;" style="verticalAlign=top;align=left;overflow=fill;html=1;rounded=0;shadow=0;comic=0;labelBackgroundColor=none;strokeWidth=1;fontFamily=Verdana;fontSize=12" vertex="1" parent="1">
          <mxGeometry x="810" y="140" width="180" height="90" as="geometry"/>
        </mxCell>
        <mxCell id="P7vGpX-RoMBEGEW_AZkf-6" value="" style="endArrow=none;html=1;entryX=0;entryY=0.5;entryDx=0;entryDy=0;exitX=1;exitY=0.25;exitDx=0;exitDy=0;" edge="1" parent="1" source="P7vGpX-RoMBEGEW_AZkf-2" target="2ed32ef02a7f4228-4">
          <mxGeometry width="50" height="50" relative="1" as="geometry">
            <mxPoint x="190" y="171" as="sourcePoint"/>
            <mxPoint x="240" y="121" as="targetPoint"/>
          </mxGeometry>
        </mxCell>
        <mxCell id="P7vGpX-RoMBEGEW_AZkf-8" value="" style="endArrow=none;html=1;exitX=0.382;exitY=-0.011;exitDx=0;exitDy=0;exitPerimeter=0;" edge="1" parent="1" source="P7vGpX-RoMBEGEW_AZkf-3" target="2ed32ef02a7f4228-4">
          <mxGeometry width="50" height="50" relative="1" as="geometry">
            <mxPoint x="110" y="340" as="sourcePoint"/>
            <mxPoint x="60" y="330" as="targetPoint"/>
          </mxGeometry>
        </mxCell>
        <mxCell id="P7vGpX-RoMBEGEW_AZkf-9" value="" style="endArrow=none;html=1;entryX=1;entryY=0.75;entryDx=0;entryDy=0;exitX=-0.007;exitY=0.34;exitDx=0;exitDy=0;exitPerimeter=0;" edge="1" parent="1" source="P7vGpX-RoMBEGEW_AZkf-5" target="2ed32ef02a7f4228-4">
          <mxGeometry width="50" height="50" relative="1" as="geometry">
            <mxPoint x="10" y="350" as="sourcePoint"/>
            <mxPoint x="60" y="300" as="targetPoint"/>
          </mxGeometry>
        </mxCell>
        <mxCell id="P7vGpX-RoMBEGEW_AZkf-12" value="&lt;div style=&quot;box-sizing: border-box ; width: 100% ; background: #e4e4e4 ; padding: 2px&quot;&gt;Vehicle&lt;/div&gt;&lt;table style=&quot;width: 100% ; font-size: 1em&quot; cellpadding=&quot;2&quot; cellspacing=&quot;0&quot;&gt;&lt;tbody&gt;&lt;tr&gt;&lt;td&gt;PK&lt;/td&gt;&lt;td&gt;vehicleID&lt;/td&gt;&lt;/tr&gt;&lt;tr&gt;&lt;td&gt;&lt;br&gt;&lt;/td&gt;&lt;td&gt;vehicleType&lt;/td&gt;&lt;/tr&gt;&lt;tr&gt;&lt;td&gt;&lt;/td&gt;&lt;td&gt;&lt;/td&gt;&lt;/tr&gt;&lt;/tbody&gt;&lt;/table&gt;" style="verticalAlign=top;align=left;overflow=fill;html=1;rounded=0;shadow=0;comic=0;labelBackgroundColor=none;strokeWidth=1;fontFamily=Verdana;fontSize=12" vertex="1" parent="1">
          <mxGeometry x="380" y="425" width="180" height="60" as="geometry"/>
        </mxCell>
        <mxCell id="P7vGpX-RoMBEGEW_AZkf-13" style="edgeStyle=orthogonalEdgeStyle;rounded=0;orthogonalLoop=1;jettySize=auto;html=1;exitX=0.5;exitY=1;exitDx=0;exitDy=0;" edge="1" parent="1" source="P7vGpX-RoMBEGEW_AZkf-12" target="P7vGpX-RoMBEGEW_AZkf-12">
          <mxGeometry relative="1" as="geometry"/>
        </mxCell>
        <mxCell id="P7vGpX-RoMBEGEW_AZkf-14" value="&lt;div style=&quot;box-sizing: border-box ; width: 100% ; background: #e4e4e4 ; padding: 2px&quot;&gt;Location&lt;/div&gt;&lt;table style=&quot;width: 100% ; font-size: 1em&quot; cellpadding=&quot;2&quot; cellspacing=&quot;0&quot;&gt;&lt;tbody&gt;&lt;tr&gt;&lt;td&gt;PK&lt;/td&gt;&lt;td&gt;locationID&lt;/td&gt;&lt;/tr&gt;&lt;tr&gt;&lt;td&gt;&lt;br&gt;&lt;/td&gt;&lt;td&gt;street&lt;br&gt;postal_code&lt;br&gt;county&lt;/td&gt;&lt;/tr&gt;&lt;tr&gt;&lt;td&gt;&lt;/td&gt;&lt;td&gt;&lt;/td&gt;&lt;/tr&gt;&lt;/tbody&gt;&lt;/table&gt;" style="verticalAlign=top;align=left;overflow=fill;html=1;rounded=0;shadow=0;comic=0;labelBackgroundColor=none;strokeWidth=1;fontFamily=Verdana;fontSize=12" vertex="1" parent="1">
          <mxGeometry x="820" y="415" width="180" height="90" as="geometry"/>
        </mxCell>
        <mxCell id="P7vGpX-RoMBEGEW_AZkf-15" value="" style="endArrow=none;html=1;entryX=0.25;entryY=0;entryDx=0;entryDy=0;" edge="1" parent="1" source="P7vGpX-RoMBEGEW_AZkf-2" target="P7vGpX-RoMBEGEW_AZkf-12">
          <mxGeometry width="50" height="50" relative="1" as="geometry">
            <mxPoint x="20" y="590" as="sourcePoint"/>
            <mxPoint x="70" y="540" as="targetPoint"/>
          </mxGeometry>
        </mxCell>
        <mxCell id="P7vGpX-RoMBEGEW_AZkf-16" value="" style="endArrow=none;html=1;entryX=0.427;entryY=0.011;entryDx=0;entryDy=0;exitX=0.194;exitY=1.016;exitDx=0;exitDy=0;exitPerimeter=0;entryPerimeter=0;" edge="1" parent="1" source="P7vGpX-RoMBEGEW_AZkf-3" target="P7vGpX-RoMBEGEW_AZkf-12">
          <mxGeometry width="50" height="50" relative="1" as="geometry">
            <mxPoint x="136.2765957446809" y="260" as="sourcePoint"/>
            <mxPoint x="205" y="450" as="targetPoint"/>
          </mxGeometry>
        </mxCell>
        <mxCell id="P7vGpX-RoMBEGEW_AZkf-18" value="" style="endArrow=none;html=1;" edge="1" parent="1" source="P7vGpX-RoMBEGEW_AZkf-5" target="P7vGpX-RoMBEGEW_AZkf-14">
          <mxGeometry width="50" height="50" relative="1" as="geometry">
            <mxPoint x="309.9200000000001" y="341.44000000000005" as="sourcePoint"/>
            <mxPoint x="850" y="375" as="targetPoint"/>
          </mxGeometry>
        </mxCell>
        <mxCell id="P7vGpX-RoMBEGEW_AZkf-19" value="" style="endArrow=none;html=1;entryX=0.25;entryY=0;entryDx=0;entryDy=0;exitX=0.5;exitY=1;exitDx=0;exitDy=0;" edge="1" parent="1" source="P7vGpX-RoMBEGEW_AZkf-3" target="P7vGpX-RoMBEGEW_AZkf-14">
          <mxGeometry width="50" height="50" relative="1" as="geometry">
            <mxPoint x="319.9200000000001" y="351.44000000000005" as="sourcePoint"/>
            <mxPoint x="256.8599999999999" y="470.605" as="targetPoint"/>
          </mxGeometry>
        </mxCell>
        <mxCell id="P7vGpX-RoMBEGEW_AZkf-20" value="" style="endArrow=none;html=1;entryX=-0.004;entryY=0.408;entryDx=0;entryDy=0;exitX=0.878;exitY=1.029;exitDx=0;exitDy=0;entryPerimeter=0;exitPerimeter=0;" edge="1" parent="1" source="P7vGpX-RoMBEGEW_AZkf-2" target="P7vGpX-RoMBEGEW_AZkf-14">
          <mxGeometry width="50" height="50" relative="1" as="geometry">
            <mxPoint x="355" y="330" as="sourcePoint"/>
            <mxPoint x="545" y="450" as="targetPoint"/>
            <Array as="points"/>
          </mxGeometry>
        </mxCell>
        <mxCell id="P7vGpX-RoMBEGEW_AZkf-26" value="" style="endArrow=none;html=1;entryX=1;entryY=0.5;entryDx=0;entryDy=0;" edge="1" parent="1" source="P7vGpX-RoMBEGEW_AZkf-5" target="P7vGpX-RoMBEGEW_AZkf-12">
          <mxGeometry width="50" height="50" relative="1" as="geometry">
            <mxPoint x="600" y="290" as="sourcePoint"/>
            <mxPoint x="190" y="690" as="targetPoint"/>
          </mxGeometry>
        </mxCell>
        <mxCell id="P7vGpX-RoMBEGEW_AZkf-30" value="&lt;div style=&quot;box-sizing: border-box ; width: 100% ; background: #e4e4e4 ; padding: 2px&quot;&gt;Time&lt;/div&gt;&lt;table style=&quot;width: 100% ; font-size: 1em&quot; cellpadding=&quot;2&quot; cellspacing=&quot;0&quot;&gt;&lt;tbody&gt;&lt;tr&gt;&lt;td&gt;PK&lt;/td&gt;&lt;td&gt;timestamp&lt;/td&gt;&lt;/tr&gt;&lt;tr&gt;&lt;td&gt;&lt;br&gt;&lt;/td&gt;&lt;td&gt;year&lt;br&gt;month_year&lt;br&gt;week&lt;br&gt;day&lt;br&gt;date&lt;br&gt;time&lt;/td&gt;&lt;/tr&gt;&lt;tr&gt;&lt;td&gt;&lt;/td&gt;&lt;td&gt;&lt;/td&gt;&lt;/tr&gt;&lt;/tbody&gt;&lt;/table&gt;" style="verticalAlign=top;align=left;overflow=fill;html=1;rounded=0;shadow=0;comic=0;labelBackgroundColor=none;strokeWidth=1;fontFamily=Verdana;fontSize=12" vertex="1" parent="1">
          <mxGeometry x="1080" y="335" width="160" height="125" as="geometry"/>
        </mxCell>
        <mxCell id="P7vGpX-RoMBEGEW_AZkf-31" value="&lt;div style=&quot;box-sizing: border-box ; width: 100% ; background: #e4e4e4 ; padding: 2px&quot;&gt;Traffic&lt;/div&gt;&amp;nbsp;FK&amp;nbsp; &amp;nbsp; transportationID&lt;br&gt;&amp;nbsp;FK&amp;nbsp; &amp;nbsp; total_vehicleVolume&lt;br&gt;&amp;nbsp;FK&amp;nbsp; &amp;nbsp; locationID&lt;br&gt;&amp;nbsp;FK&amp;nbsp; &amp;nbsp; vehicleID&lt;br&gt;&amp;nbsp;FK&amp;nbsp; &amp;nbsp; timestamp&lt;br&gt;&amp;nbsp; &amp;nbsp; &amp;nbsp; &amp;nbsp; &amp;nbsp;traffic_situation&lt;br&gt;&amp;nbsp; &amp;nbsp; &amp;nbsp; &amp;nbsp; &amp;nbsp;number_of_accidents&lt;br&gt;&amp;nbsp;PK&amp;nbsp; &amp;nbsp; traffic_scenario_ID" style="verticalAlign=top;align=left;overflow=fill;html=1;rounded=0;shadow=0;comic=0;labelBackgroundColor=none;strokeWidth=1;fontFamily=Verdana;fontSize=12" vertex="1" parent="1">
          <mxGeometry x="1080" y="115" width="180" height="140" as="geometry"/>
        </mxCell>
        <mxCell id="P7vGpX-RoMBEGEW_AZkf-34" value="" style="endArrow=none;html=1;entryX=0.425;entryY=0.006;entryDx=0;entryDy=0;entryPerimeter=0;exitX=0.36;exitY=1.02;exitDx=0;exitDy=0;exitPerimeter=0;" edge="1" parent="1" source="P7vGpX-RoMBEGEW_AZkf-31" target="P7vGpX-RoMBEGEW_AZkf-30">
          <mxGeometry width="50" height="50" relative="1" as="geometry">
            <mxPoint x="450" y="580" as="sourcePoint"/>
            <mxPoint x="500" y="530" as="targetPoint"/>
          </mxGeometry>
        </mxCell>
        <mxCell id="P7vGpX-RoMBEGEW_AZkf-35" value="" style="endArrow=none;html=1;entryX=1;entryY=0.75;entryDx=0;entryDy=0;" edge="1" parent="1" target="P7vGpX-RoMBEGEW_AZkf-12">
          <mxGeometry width="50" height="50" relative="1" as="geometry">
            <mxPoint x="1080" y="185" as="sourcePoint"/>
            <mxPoint x="500" y="530" as="targetPoint"/>
            <Array as="points"/>
          </mxGeometry>
        </mxCell>
        <mxCell id="P7vGpX-RoMBEGEW_AZkf-36" value="" style="endArrow=none;html=1;entryX=1;entryY=0.25;entryDx=0;entryDy=0;exitX=0;exitY=0.25;exitDx=0;exitDy=0;" edge="1" parent="1" source="P7vGpX-RoMBEGEW_AZkf-31" target="2ed32ef02a7f4228-4">
          <mxGeometry width="50" height="50" relative="1" as="geometry">
            <mxPoint x="450" y="580" as="sourcePoint"/>
            <mxPoint x="500" y="530" as="targetPoint"/>
          </mxGeometry>
        </mxCell>
        <mxCell id="P7vGpX-RoMBEGEW_AZkf-43" value="" style="endArrow=none;html=1;exitX=0.75;exitY=0;exitDx=0;exitDy=0;entryX=0;entryY=0.377;entryDx=0;entryDy=0;entryPerimeter=0;" edge="1" parent="1" source="P7vGpX-RoMBEGEW_AZkf-14" target="P7vGpX-RoMBEGEW_AZkf-31">
          <mxGeometry width="50" height="50" relative="1" as="geometry">
            <mxPoint x="300" y="580" as="sourcePoint"/>
            <mxPoint x="350" y="530" as="targetPoint"/>
          </mxGeometry>
        </mxCell>
      </root>
    </mxGraphModel>
  </diagram>
</mxfile>
